<?xml version="1.0"?>
<svg xmlns="http://www.w3.org/2000/svg" height="512px" viewBox="0 -63 480 479" width="512px" class=""><g><path d="m384 208.5c-26.507812 0-48 21.492188-48 48s21.492188 48 48 48 48-21.492188 48-48c-.027344-26.5-21.5-47.972656-48-48zm0 80c-17.671875 0-32-14.328125-32-32s14.328125-32 32-32 32 14.328125 32 32-14.328125 32-32 32zm0 0" data-original="#000000" class="active-path" data-old_color="#000000" fill="#D92741"/><path d="m360 152.5c0 13.253906 10.746094 24 24 24s24-10.746094 24-24-10.746094-24-24-24-24 10.746094-24 24zm32 0c0 4.417969-3.582031 8-8 8s-8-3.582031-8-8 3.582031-8 8-8 8 3.582031 8 8zm0 0" data-original="#000000" class="active-path" data-old_color="#000000" fill="#D92741"/><path d="m352 80.5h64v16h-64zm0 0" data-original="#000000" class="active-path" data-old_color="#000000" fill="#D92741"/><path d="m312 112.5h-272c-4.417969 0-8 3.582031-8 8v192c0 4.417969 3.582031 8 8 8h272c4.417969 0 8-3.582031 8-8v-192c0-4.417969-3.582031-8-8-8zm-8 192h-256v-176h256zm0 0" data-original="#000000" class="active-path" data-old_color="#000000" fill="#D92741"/><path d="m456 48.5h-32v-16c0-8.835938-7.164062-16-16-16h-48c-8.835938 0-16 7.164062-16 16v16h-66.230469l-14.175781-42.527344c-1.089844-3.269531-4.148438-5.472656-7.59375-5.472656h-112c-3.445312 0-6.503906 2.203125-7.59375 5.472656l-14.175781 42.527344h-98.230469c-13.253906 0-24 10.746094-24 24v256c0 13.253906 10.746094 24 24 24h432c13.253906 0 24-10.746094 24-24v-256c0-13.253906-10.746094-24-24-24zm-96-16h48v16h-48zm104 296c0 4.417969-3.582031 8-8 8h-432c-4.417969 0-8-3.582031-8-8v-256c0-4.417969 3.582031-8 8-8h104c3.445312 0 6.503906-2.203125 7.59375-5.472656l14.175781-42.527344h100.460938l14.175781 42.527344c1.089844 3.269531 4.148438 5.472656 7.59375 5.472656h184c4.417969 0 8 3.582031 8 8zm0 0" data-original="#000000" class="active-path" data-old_color="#000000" fill="#D92741"/><path d="m160 96.5h80c4.417969 0 8-3.582031 8-8v-48c0-4.417969-3.582031-8-8-8h-80c-4.417969 0-8 3.582031-8 8v48c0 4.417969 3.582031 8 8 8zm8-48h64v32h-64zm0 0" data-original="#000000" class="active-path" data-old_color="#000000" fill="#D92741"/></g> </svg>
