<?xml version="1.0" encoding="utf-8"?>
<!-- Generator: Adobe Illustrator 16.0.4, SVG Export Plug-In . SVG Version: 6.00 Build 0)  -->
<!DOCTYPE svg PUBLIC "-//W3C//DTD SVG 1.1//EN" "http://www.w3.org/Graphics/SVG/1.1/DTD/svg11.dtd">
<svg version="1.1" id="Layer_1" xmlns="http://www.w3.org/2000/svg" xmlns:xlink="http://www.w3.org/1999/xlink" x="0px" y="0px"
	 width="4200px" height="2000px" viewBox="0 0 4200 2000" enable-background="new 0 0 4200 2000" xml:space="preserve">
<g>
	<g>
		<path d="M1300.978,749.126h94.312v333.423h-94.312V749.126z"/>
		<path d="M1469.112,748.174h96.217l93.835,231.49l92.881-231.49h95.741v334.375h-81.451V882.019l-74.781,200.531h-65.733
			l-75.257-201.007v201.007h-81.451V748.174z"/>
		<path d="M2221.221,872.493c0,75.735-57.16,122.891-148.137,122.891h-58.109v87.166h-94.312V749.126h152.421
			C2164.061,749.126,2221.221,796.282,2221.221,872.493z M2125.957,872.493c0-30.961-19.529-49.061-58.587-49.061h-52.396v97.645
			h52.396C2106.428,921.077,2125.957,902.978,2125.957,872.493z"/>
		<path d="M2545.119,1009.675v72.875H2277.43V749.126h261.498v72.876h-168.14v56.206h148.135v70.496h-148.135v60.97H2545.119z"/>
		<path d="M2678.963,823.908h-102.407v-74.782h298.651v74.782h-101.933v258.642h-94.312V823.908z"/>
		<path d="M2912.84,933.94V749.126h94.312V931.08c0,57.16,23.815,80.022,63.35,80.022c39.059,0,62.875-22.862,62.875-80.022V749.126
			h92.882V933.94c0,99.55-58.112,155.278-156.709,155.278C2970.951,1089.218,2912.84,1033.49,2912.84,933.94z"/>
	</g>
	<g>
		<g>
			<path d="M3734.969,776.888c-15.832,0-28.713-12.881-28.713-28.714c0-15.834,12.881-28.714,28.713-28.714
				c15.836,0,28.716,12.88,28.716,28.714C3763.685,764.007,3750.805,776.888,3734.969,776.888z M3734.969,720.417
				c-15.303,0-27.754,12.451-27.754,27.757c0,15.305,12.451,27.756,27.754,27.756c15.307,0,27.758-12.451,27.758-27.756
				C3762.727,732.869,3750.275,720.417,3734.969,720.417z"/>
			<path d="M3734.969,777.288c-16.051,0-29.112-13.06-29.112-29.113s13.062-29.114,29.112-29.114
				c16.055,0,29.114,13.061,29.114,29.114S3751.023,777.288,3734.969,777.288z M3734.969,719.859
				c-15.611,0-28.314,12.702-28.314,28.315c0,15.612,12.703,28.315,28.314,28.315c15.613,0,28.316-12.703,28.316-28.315
				C3763.285,732.562,3750.582,719.859,3734.969,719.859z M3734.969,776.329c-15.523,0-28.153-12.63-28.153-28.155
				c0-15.525,12.63-28.156,28.153-28.156c15.526,0,28.156,12.63,28.156,28.156C3763.125,763.699,3750.495,776.329,3734.969,776.329z
				 M3734.969,720.818c-15.084,0-27.355,12.271-27.355,27.356s12.271,27.357,27.355,27.357c15.087,0,27.358-12.272,27.358-27.357
				S3750.056,720.818,3734.969,720.818z"/>
		</g>
		<g>
			<path d="M3728.982,762.134h-2.846v-27.996h8.225c1.371,0,2.643,0.131,3.817,0.395c1.172,0.264,2.188,0.693,3.044,1.286
				s1.522,1.365,1.996,2.313c0.475,0.949,0.711,2.109,0.711,3.479c0,1.029-0.185,1.964-0.554,2.808
				c-0.368,0.843-0.869,1.575-1.503,2.194c-0.63,0.62-1.383,1.114-2.25,1.483c-0.871,0.371-1.822,0.607-2.851,0.713l8.187,13.326
				h-3.48l-7.749-13.088h-4.747V762.134z M3728.982,746.593h4.944c2.294,0,4.06-0.413,5.299-1.244
				c1.238-0.83,1.859-2.076,1.859-3.737c0-0.921-0.174-1.7-0.515-2.333c-0.346-0.633-0.818-1.146-1.424-1.541
				c-0.606-0.396-1.346-0.687-2.215-0.871c-0.871-0.185-1.832-0.277-2.887-0.277h-5.062V746.593z"/>
		</g>
	</g>
	<path d="M3296.752,748.174h96.217l93.833,231.49l92.883-231.49h95.74v334.375h-81.45V882.019l-74.783,200.531h-65.732
		L3378.2,881.543v201.007h-81.448V748.174z"/>
</g>
<g>
	<path fill="#D92741" d="M2681.179,1179.665h20.479v102.104h-20.479V1179.665z"/>
	<path fill="#D92741" d="M2812.393,1179.521v102.248h-20.479l-46.371-70.068v70.068h-20.48v-102.248h20.48l46.371,70.213v-70.213
		H2812.393z"/>
	<path fill="#D92741" d="M2835.796,1179.665h23.26l32.474,75.919l32.475-75.919h23.112v102.104h-20.479v-66.411l-27.354,66.411
		h-15.507l-27.502-66.411v66.411h-20.479V1179.665z"/>
	<path fill="#D92741" d="M3017.914,1282.794c-28.817,0-52.368-21.65-52.368-52.369c0-30.573,23.551-52.224,52.368-52.224
		c29.11,0,52.225,21.65,52.225,52.224C3070.139,1261.144,3046.879,1282.794,3017.914,1282.794z M3017.914,1264.508
		c18.432,0,31.159-13.312,31.159-34.083c0-20.772-12.728-33.791-31.159-33.791c-18.576,0-31.303,13.019-31.303,33.791
		C2986.611,1251.196,2999.338,1264.508,3017.914,1264.508z"/>
	<path fill="#D92741" d="M3132.598,1281.769h-44.031v-102.104h42.13c21.358,0,33.206,11.118,33.206,26.331
		c0,12.433-7.459,20.187-17.408,23.405c11.558,2.048,19.748,12.725,19.748,24.722
		C3166.242,1270.359,3153.809,1281.769,3132.598,1281.769z M3127.771,1196.193h-18.725v25.601h18.725
		c9.654,0,15.213-4.388,15.213-12.727C3142.984,1200.876,3137.426,1196.193,3127.771,1196.193z M3129.234,1237.592h-20.188v27.503
		h20.625c9.948,0,15.801-4.828,15.801-13.46C3145.473,1242.859,3139.181,1237.592,3129.234,1237.592z"/>
	<path fill="#D92741" d="M3185.844,1179.665h20.479v102.104h-20.479V1179.665z"/>
	<path fill="#D92741" d="M3250.208,1179.665v85.867h33.644v16.236h-54.124v-102.104H3250.208z"/>
	<path fill="#D92741" d="M3300.089,1179.665h20.479v102.104h-20.479V1179.665z"/>
	<path fill="#D92741" d="M3406.583,1262.313h-40.665l-6.731,19.455h-21.502l36.717-102.248h23.843l36.717,102.248h-21.649
		L3406.583,1262.313z M3386.249,1203.217l-14.774,42.714h29.548L3386.249,1203.217z"/>
	<path fill="#D92741" d="M3490.255,1179.665c24.574,0,36.862,14.189,36.862,31.304c0,12.435-6.877,25.015-23.259,29.402
		l24.429,41.397h-23.697l-22.529-39.787h-9.652v39.787h-20.48v-102.104H3490.255z M3489.523,1196.634h-17.115v29.988h17.115
		c11.409,0,16.527-5.998,16.527-15.213C3506.051,1202.339,3500.933,1196.634,3489.523,1196.634z"/>
	<path fill="#D92741" d="M3548.91,1179.665h20.481v102.104h-20.481V1179.665z"/>
	<path fill="#D92741" d="M3655.404,1262.313h-40.666l-6.729,19.455h-21.504l36.718-102.248h23.843l36.718,102.248h-21.65
		L3655.404,1262.313z M3635.071,1203.217l-14.775,42.714h29.551L3635.071,1203.217z"/>
</g>
<rect x="1300.979" y="1220.567" fill="#D92741" width="1275.577" height="17.947"/>
<g>
	<polyline fill="#B11B29" points="951.636,744.027 951.988,820.04 1142.051,965.674 1174.975,942.231 	"/>
	<rect x="955.752" y="580.761" fill="none" width="0" height="162.911"/>
	<polygon fill="#D92827" points="951.359,581.115 951.359,744.027 1174.245,942.074 1174.245,826.015 	"/>
	<polyline fill="#BE1E2D" points="951.845,581.115 951.845,744.027 789.961,965.499 789.961,865.412 	"/>
	<linearGradient id="SVGID_1_" gradientUnits="userSpaceOnUse" x1="789.9614" y1="861.3291" x2="952.1968" y2="861.3291">
		<stop  offset="0" style="stop-color:#921610"/>
		<stop  offset="0.2448" style="stop-color:#961814"/>
		<stop  offset="0.652" style="stop-color:#A11B1E"/>
		<stop  offset="1" style="stop-color:#AA1F26"/>
	</linearGradient>
	<polyline fill="url(#SVGID_1_)" points="789.961,965.499 821.752,978.631 952.197,816.785 951.845,744.027 	"/>
	<linearGradient id="SVGID_2_" gradientUnits="userSpaceOnUse" x1="811.582" y1="1024.0762" x2="1141.6742" y2="890.7103">
		<stop  offset="0" style="stop-color:#BA231F"/>
		<stop  offset="0.4435" style="stop-color:#C02421"/>
		<stop  offset="1" style="stop-color:#CD2724"/>
	</linearGradient>
	<polyline fill="url(#SVGID_2_)" points="811.972,977.743 814.699,1031.791 952.615,926.537 1174.797,1051.166 1174.797,972.691 
		952.261,793.4 	"/>
	<polygon fill="#AD1A27" points="1174.377,1051.325 1158.816,1055.497 1149.545,1037.668 	"/>
	<polyline fill="#EF4136" points="930.511,972.774 930.511,889.722 783.689,1049.438 783.689,1101.613 	"/>
	<polyline fill="#BE1E2D" points="822.38,1104.586 972.229,991.937 930.511,972.869 783.689,1100.857 	"/>
	<polyline fill="#D92827" points="930.511,889.722 930.511,972.869 1164.284,1084.348 1164.284,1015.116 	"/>
	<polygon fill="#D92741" points="1193.156,1086.699 989.312,976.584 822.38,1107.124 822.38,1164.106 916.369,1109.812 
		955.752,1122.178 989.312,1104.436 1193.156,1177.546 	"/>
	<polyline fill="#CC2641" points="822.38,1104.941 822.38,1164.586 917.624,1109.734 952.261,1122.515 989.312,1104.941 
		989.312,976.146 	"/>
	<polygon fill="#B31F24" points="930.511,1150.395 945.071,1122.35 989.312,1101.613 1193.156,1177.546 1149.545,1185.894 	"/>
	<polyline fill="#AD1A27" points="773.268,1212.701 972.229,1157.155 972.229,1130.726 	"/>
	<polyline fill="#D92827" points="917.624,1109.734 917.624,1152.587 964.124,1165.714 987.908,1156.342 1156.406,1200.627 
		1156.406,1187.866 	"/>
	<polyline fill="#BE1E2D" points="773.268,1189.787 917.624,1109.719 917.624,1153.185 773.268,1213.033 	"/>
	<polyline fill="#B81D2B" points="982.725,1152.523 982.725,1197.179 792.928,1231.336 792.928,1207.36 	"/>
	<polyline fill="#92111D" points="982.725,1196.011 982.725,1206.3 792.928,1231.863 	"/>
	<polyline fill="#AA1926" points="1196.519,1211.806 1196.519,1242.088 1154.808,1251.693 982.725,1233.639 982.725,1169.91 	"/>
	<polyline fill="#BE1E2D" points="982.725,1195.834 982.725,1152.523 1196.519,1210.389 1196.519,1241.983 	"/>
	<polygon fill="#AD1A27" points="816.574,1220.148 816.574,1283.372 940.846,1283.372 940.846,1197.254 	"/>
	<polyline fill="#D32725" points="940.846,1197.254 940.846,1283.372 1161.961,1283.372 1161.961,1244.645 	"/>
	<g>
		<line fill="#AA1926" x1="952.261" y1="793.223" x2="952.261" y2="901.36"/>
		<rect x="952.054" y="793.223" fill="#991320" width="0.419" height="108.137"/>
	</g>
</g>
</svg>
