<?xml version="1.0" encoding="utf-8"?>
<!-- Generator: Adobe Illustrator 22.0.1, SVG Export Plug-In . SVG Version: 6.00 Build 0)  -->
<svg version="1.1" id="Layer_1" xmlns="http://www.w3.org/2000/svg" xmlns:xlink="http://www.w3.org/1999/xlink" x="0px" y="0px"
	 viewBox="0 0 216.8 50.9" style="enable-background:new 0 0 216.8 50.9;" xml:space="preserve">
<style type="text/css">
	.st0{fill:#D92741;}
	.st1{fill:#B11B29;}
	.st2{fill:none;}
	.st3{fill:#D92827;}
	.st4{fill:#BE1E2D;}
	.st5{fill:url(#SVGID_1_);}
	.st6{fill:url(#SVGID_2_);}
	.st7{fill:#AD1A27;}
	.st8{fill:#EF4136;}
	.st9{fill:#CC2641;}
	.st10{fill:#B31F24;}
	.st11{fill:#B81D2B;}
	.st12{fill:#92111D;}
	.st13{fill:#AA1926;}
	.st14{fill:#D32725;}
	.st15{fill:#991320;}
</style>
<g>
	<g>
		<g>
			<path d="M38.3,12.2h6.8v24.2h-6.8V12.2z"/>
			<path d="M50.4,12.1h7l6.8,16.8l6.7-16.8h6.9v24.2H72V21.8l-5.4,14.5h-4.8l-5.5-14.6v14.6h-5.9C50.4,36.4,50.4,12.1,50.4,12.1z"/>
			<path d="M105,21.1c0,5.5-4.1,8.9-10.7,8.9H90v6.3h-6.8V12.2h11C100.8,12.2,105,15.6,105,21.1z M98.1,21.1c0-2.2-1.4-3.6-4.2-3.6
				H90v7.1h3.8C96.6,24.7,98.1,23.4,98.1,21.1z"/>
			<path d="M128.4,31.1v5.3H109V12.2h19v5.3h-12.2v4.1h10.7v5.1h-10.7v4.4H128.4L128.4,31.1z"/>
			<path d="M138.1,17.6h-7.4v-5.4h21.6v5.4H145v18.7h-6.8L138.1,17.6L138.1,17.6z"/>
			<path d="M155.1,25.6V12.2h6.8v13.2c0,4.1,1.7,5.8,4.6,5.8c2.8,0,4.6-1.7,4.6-5.8V12.2h6.7v13.4c0,7.2-4.2,11.3-11.4,11.3
				C159.3,36.9,155.1,32.8,155.1,25.6z"/>
		</g>
		<g>
			<g>
				<path d="M214.7,14.2c-1.1,0-2.1-0.9-2.1-2.1c0-1.1,0.9-2.1,2.1-2.1s2.1,0.9,2.1,2.1S215.8,14.2,214.7,14.2z M214.7,10.1
					c-1.1,0-2,0.9-2,2s0.9,2,2,2s2-0.9,2-2S215.8,10.1,214.7,10.1z"/>
				<path d="M214.7,14.2c-1.2,0-2.1-0.9-2.1-2.1s0.9-2.1,2.1-2.1c1.2,0,2.1,0.9,2.1,2.1S215.8,14.2,214.7,14.2z M214.7,10.1
					c-1.1,0-2.1,0.9-2.1,2.1c0,1.1,0.9,2.1,2.1,2.1c1.1,0,2.1-0.9,2.1-2.1C216.7,11,215.8,10.1,214.7,10.1z M214.7,14.2
					c-1.1,0-2-0.9-2-2s0.9-2,2-2s2,0.9,2,2S215.8,14.2,214.7,14.2z M214.7,10.2c-1.1,0-2,0.9-2,2s0.9,2,2,2s2-0.9,2-2
					S215.8,10.2,214.7,10.2z"/>
			</g>
			<g>
				<path d="M214.2,13.1H214v-2h0.6c0.1,0,0.2,0,0.3,0s0.2,0,0.2,0.1c0.1,0,0.1,0.1,0.1,0.2c0,0.1,0.1,0.2,0.1,0.3s0,0.1,0,0.2
					c0,0.1-0.1,0.1-0.1,0.2c0,0-0.1,0.1-0.2,0.1c-0.1,0-0.1,0-0.2,0.1l0.6,1h-0.2l-0.6-0.9h-0.3L214.2,13.1L214.2,13.1z M214.2,12
					h0.4c0.2,0,0.3,0,0.4-0.1c0.1-0.1,0.1-0.2,0.1-0.3s0-0.1,0-0.2l-0.1-0.1c0,0-0.1,0-0.2-0.1c-0.1,0-0.1,0-0.2,0h-0.4V12L214.2,12
					z"/>
			</g>
		</g>
		<path d="M182.9,12.1h7l6.8,16.8l6.7-16.8h6.9v24.2h-5.9V21.8L199,36.4h-4.8l-5.5-14.6v14.6h-5.9L182.9,12.1L182.9,12.1z"/>
	</g>
	<g>
		<path class="st0" d="M138.3,43.4h1.5v7.4h-1.5V43.4z"/>
		<path class="st0" d="M147.8,43.4v7.4h-1.5l-3.4-5.1v5.1h-1.5v-7.4h1.5l3.4,5.1v-5.1H147.8z"/>
		<path class="st0" d="M149.5,43.4h1.7l2.4,5.5l2.4-5.5h1.7v7.4h-1.5V46l-2,4.8H153l-2-4.8v4.8h-1.5V43.4L149.5,43.4z"/>
		<path class="st0" d="M162.7,50.9c-2.1,0-3.8-1.6-3.8-3.8s1.7-3.8,3.8-3.8s3.8,1.6,3.8,3.8C166.5,49.3,164.8,50.9,162.7,50.9z
			 M162.7,49.6c1.3,0,2.3-1,2.3-2.5s-0.9-2.4-2.3-2.4c-1.3,0-2.3,0.9-2.3,2.4S161.4,49.6,162.7,49.6z"/>
		<path class="st0" d="M171,50.8h-3.2v-7.4h3.1c1.5,0,2.4,0.8,2.4,1.9c0,0.9-0.5,1.5-1.3,1.7c0.8,0.1,1.4,0.9,1.4,1.8
			C173.5,50,172.6,50.8,171,50.8z M170.7,44.6h-1.4v1.9h1.4c0.7,0,1.1-0.3,1.1-0.9C171.8,45,171.4,44.6,170.7,44.6z M170.8,47.6
			h-1.5v2h1.5c0.7,0,1.1-0.4,1.1-1C172,48,171.5,47.6,170.8,47.6z"/>
		<path class="st0" d="M174.9,43.4h1.5v7.4h-1.5V43.4z"/>
		<path class="st0" d="M179.5,43.4v6.2h2.4v1.2H178v-7.4H179.5z"/>
		<path class="st0" d="M183.2,43.4h1.5v7.4h-1.5V43.4z"/>
		<path class="st0" d="M190.9,49.4H188l-0.5,1.4h-1.6l2.7-7.4h1.7l2.7,7.4h-1.6L190.9,49.4z M189.4,45.1l-1.1,3.1h2.1L189.4,45.1z"
			/>
		<path class="st0" d="M196.9,43.4c1.8,0,2.7,1,2.7,2.3c0,0.9-0.5,1.8-1.7,2.1l1.8,3H198l-1.6-2.9h-0.7v2.9h-1.5v-7.4
			C194.2,43.4,196.9,43.4,196.9,43.4z M196.9,44.6h-1.2v2.2h1.2c0.8,0,1.2-0.4,1.2-1.1C198.1,45.1,197.7,44.6,196.9,44.6z"/>
		<path class="st0" d="M201.2,43.4h1.5v7.4h-1.5V43.4z"/>
		<path class="st0" d="M208.9,49.4H206l-0.5,1.4h-1.6l2.7-7.4h1.7l2.7,7.4h-1.6L208.9,49.4z M207.4,45.1l-1.1,3.1h2.1L207.4,45.1z"
			/>
	</g>
	<rect x="38.3" y="46.4" class="st0" width="92.5" height="1.3"/>
	<g>
		<polyline class="st1" points="12.9,11.8 13,17.3 26.7,27.9 29.1,26.2 		"/>
		<rect x="13.2" class="st2" width="0" height="11.8"/>
		<polygon class="st3" points="12.9,0 12.9,11.8 29.1,26.2 29.1,17.8 		"/>
		<polyline class="st4" points="12.9,0 12.9,11.8 1.2,27.9 1.2,20.6 		"/>
		
			<linearGradient id="SVGID_1_" gradientUnits="userSpaceOnUse" x1="1.2" y1="257.438" x2="12.96" y2="257.438" gradientTransform="matrix(1 0 0 1 0 -237.138)">
			<stop  offset="0" style="stop-color:#921610"/>
			<stop  offset="0.2448" style="stop-color:#961814"/>
			<stop  offset="0.652" style="stop-color:#A11B1E"/>
			<stop  offset="1" style="stop-color:#AA1F26"/>
		</linearGradient>
		<polyline class="st5" points="1.2,27.9 3.5,28.8 13,17.1 12.9,11.8 		"/>
		
			<linearGradient id="SVGID_2_" gradientUnits="userSpaceOnUse" x1="2.7717" y1="269.2729" x2="26.7026" y2="259.6042" gradientTransform="matrix(1 0 0 1 0 -237.138)">
			<stop  offset="0" style="stop-color:#BA231F"/>
			<stop  offset="0.4435" style="stop-color:#C02421"/>
			<stop  offset="1" style="stop-color:#CD2724"/>
		</linearGradient>
		<polyline class="st6" points="2.8,28.8 3,32.7 13,25.1 29.1,34.1 29.1,28.4 13,15.4 		"/>
		<polygon class="st7" points="29.1,34.1 27.9,34.4 27.3,33.1 		"/>
		<polyline class="st8" points="11.4,28.4 11.4,22.4 0.8,34 0.8,37.8 		"/>
		<polyline class="st4" points="3.6,38 14.4,29.8 11.4,28.4 0.8,37.7 		"/>
		<polyline class="st3" points="11.4,22.4 11.4,28.4 28.3,36.5 28.3,31.5 		"/>
		<polygon class="st0" points="30.4,36.7 15.7,28.7 3.6,38.2 3.6,42.3 10.4,38.3 13.2,39.2 15.7,38 30.4,43.3 		"/>
		<polyline class="st9" points="3.6,38 3.6,42.3 10.5,38.3 13,39.3 15.7,38 15.7,28.7 		"/>
		<polygon class="st10" points="11.4,41.3 12.5,39.3 15.7,37.8 30.4,43.3 27.3,43.9 		"/>
		<polyline class="st7" points="0,45.8 14.4,41.8 14.4,39.9 		"/>
		<polyline class="st3" points="10.5,38.3 10.5,41.4 13.8,42.4 15.6,41.7 27.8,44.9 27.8,44 		"/>
		<polyline class="st4" points="0,44.1 10.5,38.3 10.5,41.5 0,45.8 		"/>
		<polyline class="st11" points="15.2,41.4 15.2,44.7 1.4,47.2 1.4,45.4 		"/>
		<polyline class="st12" points="15.2,44.6 15.2,45.3 1.4,47.2 		"/>
		<polyline class="st13" points="30.7,45.7 30.7,47.9 27.7,48.6 15.2,47.3 15.2,42.7 		"/>
		<polyline class="st4" points="15.2,44.6 15.2,41.4 30.7,45.6 30.7,47.9 		"/>
		<polygon class="st7" points="3.1,46.3 3.1,50.9 12.1,50.9 12.1,44.7 		"/>
		<polyline class="st14" points="12.1,44.7 12.1,50.9 28.2,50.9 28.2,48.1 		"/>
		<g>
			<line class="st2" x1="13" y1="15.4" x2="13" y2="23.2"/>
			<rect x="13" y="15.4" class="st15" width="0" height="7.8"/>
		</g>
	</g>
</g>
</svg>
