<?xml version="1.0"?>
<svg xmlns="http://www.w3.org/2000/svg" xmlns:xlink="http://www.w3.org/1999/xlink" version="1.1" id="Capa_1" x="0px" y="0px" viewBox="0 0 508 508" style="enable-background:new 0 0 508 508;" xml:space="preserve" width="512px" height="512px"><g><g>
	<g>
		<path d="M425.35,137V67.5h-86.9L254.05,0l-84.4,67.5h-86.9V137l-81.6,65.3V508h505.7V202.3L425.35,137z M425.35,157.9l60.4,48.3    l-60.4,48.3V157.9z M254.05,20.9l58.3,46.6h-116.6L254.05,20.9z M99.05,83.9h310v183.7l-155,124l-155-124V83.9z M82.75,157.9v96.6    l-60.4-48.3L82.75,157.9z M17.55,223.2l142.8,114.2L17.55,480.2V223.2z M29.05,491.7l144-144l81,64.8l81-64.8l144,144H29.05z     M490.65,480.2h-0.1l-142.7-142.8l142.8-114.2V480.2z" data-original="#000000" class="active-path" data-old_color="#000000" fill="#A0A0A0"/>
	</g>
</g><g>
	<g>
		<rect x="131.75" y="116.5" width="236.5" height="16.3" data-original="#000000" class="active-path" data-old_color="#000000" fill="#A0A0A0"/>
	</g>
</g><g>
	<g>
		<rect x="131.75" y="173.6" width="236.5" height="16.3" data-original="#000000" class="active-path" data-old_color="#000000" fill="#A0A0A0"/>
	</g>
</g><g>
	<g>
		<rect x="302.95" y="230.7" width="65.3" height="16.3" data-original="#000000" class="active-path" data-old_color="#000000" fill="#A0A0A0"/>
	</g>
</g><g>
	<g>
		<rect x="131.75" y="230.7" width="97.9" height="16.3" data-original="#000000" class="active-path" data-old_color="#000000" fill="#A0A0A0"/>
	</g>
</g></g> </svg>
