<?xml version="1.0" encoding="utf-8"?>
<!-- Generator: Adobe Illustrator 16.0.4, SVG Export Plug-In . SVG Version: 6.00 Build 0)  -->
<!DOCTYPE svg PUBLIC "-//W3C//DTD SVG 1.1//EN" "http://www.w3.org/Graphics/SVG/1.1/DTD/svg11.dtd">
<svg version="1.1" id="Layer_1" xmlns="http://www.w3.org/2000/svg" xmlns:xlink="http://www.w3.org/1999/xlink" x="0px" y="0px"
	 width="2000px" height="792px" viewBox="0 0 2000 792" enable-background="new 0 0 2000 792" xml:space="preserve">
<line fill="#FFFFFF" stroke="#FFFFFF" stroke-width="5" x1="296" y1="231" x2="298" y2="449"/>
<line fill="#FFFFFF" stroke="#FFFFFF" stroke-width="5" x1="299" y1="447" x2="476.333" y2="447.333"/>
<line fill="#FFFFFF" stroke="#FFFFFF" stroke-width="5" x1="507.01" y1="235" x2="507" y2="448.5"/>
<line fill="#FFFFFF" stroke="#FFFFFF" stroke-width="5" x1="620" y1="233" x2="621.5" y2="448"/>
<line fill="#FFFFFF" stroke="#FFFFFF" stroke-width="5" x1="622" y1="235" x2="798" y2="238"/>
<line fill="#FFFFFF" stroke="#FFFFFF" stroke-width="5" x1="622" y1="341" x2="798" y2="342"/>
<line fill="#FFFFFF" stroke="#FFFFFF" stroke-width="5" x1="622" y1="446" x2="798" y2="447"/>
<line fill="#FFFFFF" stroke="#FFFFFF" stroke-width="5" x1="819" y1="233" x2="821" y2="450.5"/>
<line fill="#FFFFFF" stroke="#FFFFFF" stroke-width="5" x1="819" y1="235" x2="1000" y2="235.01"/>
<line fill="#FFFFFF" stroke="#FFFFFF" stroke-width="5" x1="819" y1="341" x2="1000" y2="341.01"/>
<line fill="#FFFFFF" stroke="#FFFFFF" stroke-width="5" x1="1001.01" y1="233" x2="1001" y2="343"/>
<line fill="#FFFFFF" stroke="#FFFFFF" stroke-width="5" x1="821" y1="341" x2="1000.5" y2="444"/>
<line fill="#FFFFFF" stroke="#FFFFFF" stroke-width="5" x1="1032" y1="233" x2="1033.5" y2="448"/>
<line fill="#FFFFFF" stroke="#FFFFFF" stroke-width="5" x1="1214.5" y1="236.5" x2="1033.5" y2="446.5"/>
<line fill="#FFFFFF" stroke="#FFFFFF" stroke-width="5" x1="1594.5" y1="235" x2="1598" y2="450"/>
<line fill="#FFFFFF" stroke="#FFFFFF" stroke-width="5" x1="173" y1="234" x2="280.333" y2="448"/>
<line fill="#FFFFFF" stroke="#FFFFFF" stroke-width="5" x1="173" y1="232" x2="81" y2="450"/>
<line fill="#FFFFFF" stroke="#FFFFFF" stroke-width="5" x1="416" y1="235" x2="605.333" y2="235.667"/>
<line fill="#FFFFFF" stroke="#FFFFFF" stroke-width="5" x1="1215" y1="235" x2="1217" y2="448"/>
<line fill="#FFFFFF" stroke="#FFFFFF" stroke-width="5" x1="1330" y1="232" x2="1428" y2="444.667"/>
<line fill="#FFFFFF" stroke="#FFFFFF" stroke-width="5" x1="1330" y1="230" x2="1238" y2="448"/>
<line fill="#FFFFFF" stroke="#FFFFFF" stroke-width="5" x1="1476.01" y1="236" x2="1476" y2="449.5"/>
<line fill="#FFFFFF" stroke="#FFFFFF" stroke-width="5" x1="1385" y1="236" x2="1574.333" y2="236.667"/>
<line fill="#FFFFFF" stroke="#FFFFFF" stroke-width="5" x1="1857" y1="236" x2="1955" y2="448.667"/>
<line fill="#FFFFFF" stroke="#FFFFFF" stroke-width="5" x1="1857" y1="234" x2="1765" y2="452"/>
<line fill="#FFFFFF" stroke="#FFFFFF" stroke-width="5" x1="1826" y1="233" x2="1734" y2="451"/>
<line fill="#FFFFFF" stroke="#FFFFFF" stroke-width="5" x1="1616" y1="234.667" x2="1735" y2="452"/>
<g>
	<path fill="#E4E5E6" d="M126.016,485.608c-0.512-1.152-1.238-2.102-2.176-2.849c-0.939-0.746-2.059-1.29-3.36-1.632
		c-1.302-0.341-2.742-0.512-4.32-0.512c-2.304,0-4.118,0.31-5.44,0.928c-1.323,0.619-2.304,1.323-2.944,2.112
		c-0.64,0.79-1.046,1.567-1.216,2.336c-0.171,0.768-0.256,1.302-0.256,1.6c0,1.622,0.33,2.87,0.992,3.744
		c0.661,0.875,1.546,1.547,2.656,2.016c1.152,0.471,2.4,0.875,3.744,1.217c1.344,0.342,2.912,0.747,4.704,1.216
		c1.28,0.342,2.549,0.693,3.808,1.056c1.258,0.363,2.389,0.864,3.392,1.504c1.002,0.641,1.813,1.451,2.432,2.433
		c0.618,0.981,0.928,2.262,0.928,3.84c0,1.664-0.352,3.072-1.056,4.224c-0.704,1.152-1.622,2.091-2.752,2.816
		c-1.131,0.726-2.411,1.248-3.84,1.567c-1.43,0.32-2.848,0.48-4.256,0.48c-4.395,0-7.712-0.96-9.952-2.88
		c-2.24-1.92-3.36-4.949-3.36-9.088h1.28c0,3.712,1.034,6.432,3.104,8.16c2.069,1.728,5.045,2.592,8.928,2.592
		c1.194,0,2.421-0.139,3.68-0.416c1.258-0.277,2.4-0.726,3.424-1.345c1.024-0.617,1.866-1.418,2.528-2.399
		c0.661-0.981,0.992-2.176,0.992-3.584c0-1.45-0.331-2.624-0.992-3.521c-0.662-0.896-1.515-1.632-2.56-2.208
		c-1.046-0.575-2.251-1.033-3.616-1.376c-1.366-0.341-2.752-0.682-4.16-1.023c-1.579-0.384-2.966-0.746-4.16-1.088
		c-1.195-0.342-2.262-0.726-3.2-1.152c-1.366-0.597-2.368-1.429-3.008-2.496c-0.64-1.065-0.96-2.496-0.96-4.288
		c0-0.896,0.192-1.834,0.576-2.815c0.384-0.981,1.024-1.877,1.92-2.688c0.896-0.81,2.048-1.472,3.456-1.984
		c1.408-0.512,3.136-0.768,5.184-0.768c3.669,0,6.57,0.832,8.704,2.496c2.133,1.664,3.2,4.331,3.2,8h-1.28
		C126.784,488.168,126.528,486.76,126.016,485.608z"/>
	<path fill="#E4E5E6" d="M209.088,490.056c0.64-2.068,1.589-3.893,2.848-5.472c1.258-1.578,2.805-2.848,4.64-3.808
		c1.834-0.96,3.968-1.44,6.4-1.44c2.389,0,4.501,0.48,6.336,1.44c1.834,0.96,3.381,2.229,4.64,3.808
		c1.258,1.579,2.208,3.403,2.848,5.472c0.64,2.07,0.96,4.235,0.96,6.496c0,2.263-0.32,4.427-0.96,6.496
		c-0.64,2.07-1.59,3.895-2.848,5.472c-1.259,1.579-2.806,2.839-4.64,3.776c-1.835,0.938-3.968,1.408-6.4,1.408
		c-2.39,0-4.502-0.47-6.336-1.408c-1.835-0.938-3.382-2.197-4.64-3.776c-1.259-1.577-2.208-3.401-2.848-5.472
		c-0.64-2.069-0.96-4.233-0.96-6.496C208.128,494.291,208.448,492.126,209.088,490.056z M210.272,502.568
		c0.576,1.92,1.44,3.615,2.592,5.088c1.152,1.472,2.57,2.646,4.256,3.52c1.685,0.875,3.637,1.312,5.856,1.312
		c2.176,0,4.106-0.438,5.792-1.312c1.685-0.874,3.104-2.048,4.256-3.52c1.152-1.473,2.016-3.168,2.592-5.088
		c0.576-1.92,0.864-3.926,0.864-6.017c0-2.048-0.288-4.032-0.864-5.952c-0.576-1.92-1.44-3.615-2.592-5.088
		c-1.152-1.472-2.571-2.655-4.256-3.552c-1.686-0.896-3.616-1.344-5.792-1.344c-2.219,0-4.171,0.448-5.856,1.344
		c-1.686,0.896-3.104,2.08-4.256,3.552c-1.152,1.473-2.016,3.168-2.592,5.088s-0.864,3.904-0.864,5.952
		C209.408,498.643,209.696,500.648,210.272,502.568z"/>
	<path fill="#E4E5E6" d="M319.231,467.304V513h-1.28v-45.696H319.231z"/>
	<path fill="#E4E5E6" d="M424.832,513v-8.128h-0.128c-0.598,2.56-1.91,4.672-3.936,6.336c-2.027,1.664-4.662,2.496-7.904,2.496
		c-1.707,0-3.275-0.246-4.704-0.736c-1.43-0.49-2.667-1.236-3.712-2.24c-1.046-1.002-1.856-2.239-2.432-3.712
		c-0.576-1.472-0.864-3.168-0.864-5.088v-21.824h1.28v21.633c0,1.92,0.277,3.552,0.832,4.896c0.554,1.344,1.312,2.454,2.272,3.328
		c0.96,0.875,2.069,1.515,3.328,1.92c1.258,0.406,2.592,0.608,4,0.608c1.962,0,3.69-0.373,5.184-1.12
		c1.493-0.746,2.741-1.749,3.744-3.008c1.002-1.259,1.76-2.721,2.272-4.385c0.512-1.664,0.768-3.412,0.768-5.248v-18.624h1.28V513
		H424.832z"/>
	<path fill="#E4E5E6" d="M533.183,506.76c-0.726,1.473-1.675,2.721-2.848,3.744c-1.174,1.024-2.539,1.814-4.096,2.368
		c-1.558,0.554-3.275,0.832-5.152,0.832c-2.347,0-4.427-0.438-6.24-1.312c-1.814-0.874-3.339-2.058-4.576-3.552
		c-1.238-1.493-2.176-3.231-2.816-5.216c-0.64-1.984-0.96-4.106-0.96-6.368c0-2.389,0.309-4.661,0.928-6.815
		c0.618-2.154,1.557-4.054,2.816-5.696c1.258-1.643,2.858-2.954,4.8-3.937c1.941-0.98,4.213-1.472,6.816-1.472
		c1.536,0,3.008,0.235,4.416,0.704c1.408,0.47,2.666,1.152,3.776,2.048c1.109,0.896,2.037,2.016,2.784,3.36
		c0.746,1.344,1.226,2.891,1.44,4.64h-1.28c-0.256-1.621-0.726-3.018-1.408-4.191c-0.683-1.174-1.515-2.154-2.496-2.944
		c-0.982-0.789-2.091-1.376-3.328-1.76c-1.238-0.385-2.539-0.576-3.904-0.576c-2.603,0-4.811,0.502-6.624,1.504
		c-1.814,1.003-3.264,2.304-4.352,3.904c-1.088,1.6-1.878,3.392-2.368,5.376c-0.491,1.983-0.736,3.936-0.736,5.855
		c0,2.006,0.288,3.926,0.864,5.76c0.576,1.835,1.418,3.456,2.528,4.864c1.109,1.408,2.496,2.528,4.16,3.36s3.584,1.248,5.76,1.248
		c1.621,0,3.136-0.245,4.544-0.736c1.408-0.49,2.656-1.205,3.744-2.144c1.088-0.938,1.973-2.059,2.656-3.36
		c0.682-1.301,1.088-2.784,1.216-4.448h1.28C534.356,503.635,533.908,505.288,533.183,506.76z"/>
	<path fill="#E4E5E6" d="M614.911,473.768v-6.464h1.28v6.464H614.911z M614.911,513v-32.896h1.28V513H614.911z"/>
	<path fill="#E4E5E6" d="M697.342,490.056c0.64-2.068,1.589-3.893,2.848-5.472c1.258-1.578,2.805-2.848,4.64-3.808
		c1.834-0.96,3.968-1.44,6.4-1.44c2.389,0,4.501,0.48,6.336,1.44c1.834,0.96,3.381,2.229,4.64,3.808
		c1.258,1.579,2.208,3.403,2.848,5.472c0.64,2.07,0.96,4.235,0.96,6.496c0,2.263-0.32,4.427-0.96,6.496
		c-0.64,2.07-1.59,3.895-2.848,5.472c-1.259,1.579-2.806,2.839-4.64,3.776c-1.835,0.938-3.968,1.408-6.4,1.408
		c-2.39,0-4.502-0.47-6.336-1.408c-1.835-0.938-3.382-2.197-4.64-3.776c-1.259-1.577-2.208-3.401-2.848-5.472
		c-0.64-2.069-0.96-4.233-0.96-6.496C696.382,494.291,696.702,492.126,697.342,490.056z M698.526,502.568
		c0.576,1.92,1.44,3.615,2.592,5.088c1.152,1.472,2.57,2.646,4.256,3.52c1.685,0.875,3.637,1.312,5.856,1.312
		c2.176,0,4.106-0.438,5.792-1.312c1.685-0.874,3.104-2.048,4.256-3.52c1.152-1.473,2.016-3.168,2.592-5.088
		c0.576-1.92,0.864-3.926,0.864-6.017c0-2.048-0.288-4.032-0.864-5.952c-0.576-1.92-1.44-3.615-2.592-5.088
		c-1.152-1.472-2.571-2.655-4.256-3.552c-1.686-0.896-3.616-1.344-5.792-1.344c-2.219,0-4.171,0.448-5.856,1.344
		c-1.686,0.896-3.104,2.08-4.256,3.552c-1.152,1.473-2.016,3.168-2.592,5.088s-0.864,3.904-0.864,5.952
		C697.662,498.643,697.95,500.648,698.526,502.568z"/>
	<path fill="#E4E5E6" d="M807.486,480.104v8.129h0.128c0.298-1.28,0.778-2.453,1.44-3.521c0.661-1.065,1.493-2.005,2.496-2.815
		c1.002-0.811,2.165-1.44,3.488-1.889c1.322-0.448,2.794-0.672,4.416-0.672c1.706,0,3.274,0.256,4.704,0.768
		c1.429,0.513,2.666,1.271,3.712,2.272c1.045,1.003,1.856,2.24,2.432,3.712c0.576,1.472,0.864,3.168,0.864,5.088V513h-1.28v-21.632
		c0-1.92-0.278-3.552-0.832-4.896c-0.555-1.344-1.312-2.453-2.272-3.328c-0.96-0.874-2.07-1.514-3.328-1.92
		c-1.259-0.404-2.592-0.607-4-0.607c-1.963,0-3.691,0.374-5.184,1.12c-1.494,0.747-2.742,1.75-3.744,3.008
		c-1.003,1.259-1.76,2.72-2.272,4.384c-0.512,1.664-0.768,3.414-0.768,5.248V513h-1.28v-32.896H807.486z"/>
	<path fill="#E4E5E6" d="M913.247,502.984c0.49,1.898,1.248,3.552,2.272,4.96c1.024,1.407,2.346,2.518,3.968,3.328
		c1.621,0.811,3.605,1.216,5.952,1.216c3.456,0,6.325-0.906,8.608-2.721c2.282-1.812,3.701-4.532,4.256-8.159h1.28
		c-0.47,3.84-1.984,6.815-4.544,8.928s-5.718,3.168-9.472,3.168c-2.56,0.042-4.747-0.363-6.56-1.216
		c-1.814-0.854-3.296-2.059-4.448-3.616c-1.152-1.557-2.006-3.392-2.56-5.504c-0.555-2.112-0.832-4.384-0.832-6.816
		c0-2.729,0.405-5.162,1.216-7.296c0.81-2.133,1.877-3.936,3.2-5.408c1.322-1.472,2.858-2.592,4.608-3.359
		c1.749-0.769,3.541-1.152,5.376-1.152c2.56,0,4.768,0.491,6.624,1.472c1.856,0.982,3.37,2.283,4.544,3.904
		c1.173,1.622,2.026,3.479,2.56,5.568c0.533,2.091,0.757,4.267,0.672,6.527h-27.52C912.488,499.027,912.755,501.086,913.247,502.984
		z M937.854,489.8c-0.555-1.812-1.376-3.401-2.464-4.768c-1.088-1.365-2.443-2.442-4.064-3.232
		c-1.622-0.789-3.499-1.184-5.632-1.184c-1.792,0-3.467,0.342-5.024,1.023c-1.558,0.684-2.923,1.676-4.096,2.977
		c-1.174,1.302-2.123,2.87-2.848,4.704c-0.726,1.835-1.152,3.903-1.28,6.208h26.24C938.687,493.523,938.408,491.614,937.854,489.8z"
		/>
	<path fill="#E4E5E6" d="M1040.639,485.608c-0.512-1.152-1.238-2.102-2.176-2.849c-0.939-0.746-2.06-1.29-3.361-1.632
		c-1.301-0.341-2.741-0.512-4.319-0.512c-2.304,0-4.118,0.31-5.44,0.928c-1.322,0.619-2.304,1.323-2.943,2.112
		c-0.641,0.79-1.047,1.567-1.217,2.336c-0.17,0.768-0.256,1.302-0.256,1.6c0,1.622,0.33,2.87,0.992,3.744
		c0.661,0.875,1.547,1.547,2.656,2.016c1.152,0.471,2.4,0.875,3.744,1.217s2.912,0.747,4.704,1.216
		c1.28,0.342,2.549,0.693,3.808,1.056c1.258,0.363,2.389,0.864,3.393,1.504c1.002,0.641,1.812,1.451,2.432,2.433
		c0.618,0.981,0.928,2.262,0.928,3.84c0,1.664-0.352,3.072-1.056,4.224c-0.704,1.152-1.622,2.091-2.752,2.816
		c-1.132,0.726-2.411,1.248-3.841,1.567c-1.43,0.32-2.848,0.48-4.256,0.48c-4.395,0-7.711-0.96-9.951-2.88s-3.36-4.949-3.36-9.088
		h1.28c0,3.712,1.033,6.432,3.104,8.16c2.069,1.728,5.045,2.592,8.928,2.592c1.194,0,2.422-0.139,3.681-0.416
		c1.258-0.277,2.399-0.726,3.424-1.345c1.024-0.617,1.866-1.418,2.528-2.399c0.66-0.981,0.992-2.176,0.992-3.584
		c0-1.45-0.332-2.624-0.992-3.521c-0.662-0.896-1.516-1.632-2.561-2.208c-1.046-0.575-2.25-1.033-3.615-1.376
		c-1.367-0.341-2.752-0.682-4.16-1.023c-1.579-0.384-2.967-0.746-4.16-1.088c-1.195-0.342-2.262-0.726-3.2-1.152
		c-1.366-0.597-2.368-1.429-3.008-2.496c-0.64-1.065-0.96-2.496-0.96-4.288c0-0.896,0.191-1.834,0.576-2.815
		c0.384-0.981,1.023-1.877,1.92-2.688c0.896-0.81,2.048-1.472,3.455-1.984c1.408-0.512,3.137-0.768,5.185-0.768
		c3.669,0,6.569,0.832,8.704,2.496c2.133,1.664,3.2,4.331,3.2,8h-1.28C1041.406,488.168,1041.15,486.76,1040.639,485.608z"/>
</g>
<g>
	<path fill="#E4E5E6" d="M1145.32,506.76c-0.726,1.473-1.674,2.721-2.848,3.744c-1.174,1.024-2.539,1.814-4.096,2.368
		c-1.559,0.554-3.275,0.832-5.152,0.832c-2.347,0-4.427-0.438-6.24-1.312s-3.338-2.058-4.576-3.552
		c-1.237-1.493-2.176-3.231-2.815-5.216s-0.96-4.106-0.96-6.368c0-2.389,0.309-4.661,0.928-6.815
		c0.618-2.154,1.558-4.054,2.816-5.696c1.258-1.643,2.857-2.954,4.8-3.937c1.941-0.98,4.214-1.472,6.816-1.472
		c1.536,0,3.008,0.235,4.415,0.704c1.408,0.47,2.666,1.152,3.777,2.048c1.108,0.896,2.037,2.016,2.783,3.36
		c0.746,1.344,1.227,2.891,1.439,4.64h-1.279c-0.256-1.621-0.727-3.018-1.408-4.191c-0.683-1.174-1.515-2.154-2.496-2.944
		c-0.981-0.789-2.091-1.376-3.328-1.76c-1.238-0.385-2.539-0.576-3.903-0.576c-2.603,0-4.812,0.502-6.624,1.504
		c-1.814,1.003-3.264,2.304-4.352,3.904c-1.089,1.6-1.879,3.392-2.369,5.376c-0.49,1.983-0.735,3.936-0.735,5.855
		c0,2.006,0.288,3.926,0.864,5.76c0.576,1.835,1.418,3.456,2.527,4.864s2.496,2.528,4.16,3.36s3.584,1.248,5.76,1.248
		c1.621,0,3.137-0.245,4.545-0.736c1.407-0.49,2.655-1.205,3.743-2.144c1.089-0.938,1.974-2.059,2.656-3.36
		c0.683-1.301,1.088-2.784,1.216-4.448h1.28C1146.494,503.635,1146.046,505.288,1145.32,506.76z"/>
	<path fill="#E4E5E6" d="M1227.049,513v-32.896h1.279v8.129h0.129c0.298-1.237,0.768-2.4,1.408-3.488
		c0.64-1.088,1.492-2.037,2.56-2.848c1.065-0.811,2.336-1.45,3.808-1.921c1.473-0.469,3.189-0.682,5.152-0.64v1.28
		c-2.262-0.128-4.214,0.182-5.855,0.928c-1.644,0.747-2.998,1.771-4.064,3.072c-1.066,1.302-1.855,2.806-2.368,4.512
		c-0.512,1.707-0.769,3.456-0.769,5.248V513H1227.049z"/>
	<path fill="#E4E5E6" d="M1318.664,502.984c0.49,1.898,1.248,3.552,2.271,4.96c1.024,1.407,2.346,2.518,3.969,3.328
		c1.621,0.811,3.604,1.216,5.951,1.216c3.457,0,6.325-0.906,8.608-2.721c2.282-1.812,3.701-4.532,4.256-8.159h1.28
		c-0.471,3.84-1.984,6.815-4.544,8.928s-5.718,3.168-9.472,3.168c-2.561,0.042-4.748-0.363-6.561-1.216
		c-1.814-0.854-3.296-2.059-4.447-3.616c-1.152-1.557-2.007-3.392-2.561-5.504c-0.555-2.112-0.832-4.384-0.832-6.816
		c0-2.729,0.404-5.162,1.216-7.296c0.81-2.133,1.877-3.936,3.2-5.408c1.322-1.472,2.857-2.592,4.607-3.359
		c1.75-0.769,3.541-1.152,5.377-1.152c2.56,0,4.768,0.491,6.623,1.472c1.856,0.982,3.371,2.283,4.545,3.904
		c1.172,1.622,2.025,3.479,2.56,5.568c0.533,2.091,0.757,4.267,0.672,6.527h-27.521
		C1317.906,499.027,1318.173,501.086,1318.664,502.984z M1343.271,489.8c-0.555-1.812-1.375-3.401-2.463-4.768
		c-1.089-1.365-2.443-2.442-4.064-3.232c-1.622-0.789-3.499-1.184-5.633-1.184c-1.791,0-3.467,0.342-5.023,1.023
		c-1.559,0.684-2.923,1.676-4.096,2.977c-1.174,1.302-2.123,2.87-2.848,4.704c-0.727,1.835-1.152,3.903-1.281,6.208h26.24
		C1344.104,493.523,1343.826,491.614,1343.271,489.8z"/>
	<path fill="#E4E5E6" d="M1426.217,485.96c0.554-1.344,1.354-2.506,2.399-3.488c1.045-0.98,2.325-1.749,3.84-2.304
		c1.515-0.554,3.296-0.832,5.345-0.832c1.449,0,2.826,0.15,4.127,0.448c1.302,0.299,2.442,0.822,3.424,1.567
		c0.982,0.747,1.771,1.719,2.369,2.912c0.597,1.195,0.916,2.688,0.959,4.48v20.928c0,0.64,0.129,1.11,0.385,1.408
		c0.256,0.299,0.597,0.502,1.023,0.608c0.426,0.106,0.885,0.149,1.377,0.128c0.489-0.021,0.948-0.054,1.375-0.097V513h-1.92
		c-0.938,0-1.76-0.224-2.464-0.672s-1.056-1.29-1.056-2.528v-4.288h-0.128c-0.343,1.067-0.886,2.091-1.632,3.072
		c-0.748,0.982-1.687,1.856-2.816,2.624c-1.131,0.768-2.422,1.376-3.872,1.824s-3.03,0.672-4.735,0.672
		c-3.328,0-5.996-0.736-8-2.208c-2.006-1.472-3.008-3.68-3.008-6.624c0-2.048,0.329-3.69,0.991-4.928
		c0.661-1.237,1.524-2.208,2.593-2.912c1.065-0.704,2.281-1.194,3.647-1.473c1.364-0.276,2.729-0.458,4.096-0.544
		c2.261-0.128,4.202-0.244,5.824-0.352c1.621-0.106,2.954-0.32,4-0.64c1.045-0.32,1.813-0.811,2.304-1.473
		c0.49-0.661,0.736-1.609,0.736-2.848c0-0.981-0.086-2.005-0.256-3.072c-0.172-1.065-0.588-2.048-1.248-2.943
		c-0.662-0.896-1.633-1.633-2.912-2.208c-1.28-0.576-3.008-0.864-5.184-0.864c-3.457,0-6.145,0.843-8.064,2.527
		c-1.92,1.687-2.986,4.064-3.2,7.137h-1.28C1425.342,488.744,1425.661,487.304,1426.217,485.96z M1447.272,493.672
		c-0.427,0.598-1.089,1.056-1.984,1.376s-1.92,0.566-3.071,0.736c-1.152,0.171-2.4,0.277-3.744,0.319
		c-1.344,0.044-2.656,0.107-3.937,0.192c-1.28,0.086-2.528,0.246-3.743,0.48c-1.217,0.234-2.295,0.662-3.232,1.279
		c-0.939,0.619-1.686,1.473-2.24,2.561s-0.832,2.507-0.832,4.256c0,0.938,0.16,1.867,0.48,2.784
		c0.319,0.918,0.863,1.728,1.631,2.432c0.769,0.704,1.761,1.28,2.977,1.729c1.217,0.447,2.721,0.672,4.512,0.672
		c2.133,0,4.032-0.362,5.696-1.088s3.062-1.675,4.192-2.849c1.13-1.173,1.984-2.527,2.56-4.063c0.576-1.536,0.864-3.114,0.864-4.736
		v-6.08H1447.272z"/>
	<path fill="#E4E5E6" d="M1534.504,506.6c0,1.238,0.138,2.198,0.416,2.881c0.276,0.683,0.629,1.194,1.056,1.535
		c0.426,0.343,0.896,0.544,1.407,0.608c0.513,0.064,1.024,0.096,1.537,0.096c0.64,0,1.215-0.01,1.728-0.031
		c0.512-0.021,0.874-0.074,1.088-0.16v1.279c-0.384,0.043-0.758,0.086-1.12,0.128c-0.363,0.043-1.035,0.064-2.016,0.064
		c-1.494,0-2.764-0.437-3.809-1.312c-1.045-0.874-1.568-2.485-1.568-4.832v-25.473h-6.016v-1.28h6.016v-10.367h1.281v10.367h7.424
		v1.28h-7.424V506.6z"/>
	<path fill="#E4E5E6" d="M1621.287,473.768v-6.464h1.279v6.464H1621.287z M1621.287,513v-32.896h1.279V513H1621.287z"/>
	<path fill="#E4E5E6" d="M1727.782,480.104L1715.366,513h-1.601l-13.504-32.896h1.473l12.736,31.616h0.127l11.777-31.616H1727.782z"
		/>
	<path fill="#E4E5E6" d="M1806.311,485.96c0.555-1.344,1.354-2.506,2.4-3.488c1.045-0.98,2.324-1.749,3.84-2.304
		c1.514-0.554,3.296-0.832,5.344-0.832c1.45,0,2.826,0.15,4.128,0.448c1.302,0.299,2.442,0.822,3.424,1.567
		c0.981,0.747,1.771,1.719,2.368,2.912c0.598,1.195,0.917,2.688,0.96,4.48v20.928c0,0.64,0.128,1.11,0.384,1.408
		c0.256,0.299,0.598,0.502,1.024,0.608c0.426,0.106,0.885,0.149,1.376,0.128c0.49-0.021,0.949-0.054,1.376-0.097V513h-1.92
		c-0.938,0-1.761-0.224-2.464-0.672c-0.704-0.448-1.057-1.29-1.057-2.528v-4.288h-0.127c-0.343,1.067-0.887,2.091-1.633,3.072
		c-0.747,0.982-1.686,1.856-2.816,2.624s-2.422,1.376-3.871,1.824c-1.451,0.448-3.03,0.672-4.736,0.672
		c-3.328,0-5.995-0.736-8-2.208c-2.006-1.472-3.008-3.68-3.008-6.624c0-2.048,0.33-3.69,0.992-4.928
		c0.66-1.237,1.524-2.208,2.592-2.912c1.066-0.704,2.281-1.194,3.648-1.473c1.364-0.276,2.729-0.458,4.096-0.544
		c2.261-0.128,4.201-0.244,5.824-0.352c1.621-0.106,2.953-0.32,4-0.64c1.045-0.32,1.812-0.811,2.303-1.473
		c0.49-0.661,0.736-1.609,0.736-2.848c0-0.981-0.086-2.005-0.256-3.072c-0.171-1.065-0.587-2.048-1.248-2.943
		c-0.662-0.896-1.632-1.633-2.912-2.208c-1.279-0.576-3.008-0.864-5.184-0.864c-3.456,0-6.145,0.843-8.064,2.527
		c-1.92,1.687-2.986,4.064-3.199,7.137h-1.28C1805.436,488.744,1805.756,487.304,1806.311,485.96z M1827.367,493.672
		c-0.428,0.598-1.089,1.056-1.984,1.376c-0.896,0.32-1.92,0.566-3.072,0.736c-1.152,0.171-2.4,0.277-3.744,0.319
		c-1.344,0.044-2.656,0.107-3.936,0.192c-1.28,0.086-2.528,0.246-3.744,0.48c-1.217,0.234-2.294,0.662-3.232,1.279
		c-0.939,0.619-1.686,1.473-2.24,2.561s-0.832,2.507-0.832,4.256c0,0.938,0.16,1.867,0.48,2.784c0.32,0.918,0.864,1.728,1.632,2.432
		c0.769,0.704,1.761,1.28,2.976,1.729c1.217,0.447,2.721,0.672,4.513,0.672c2.133,0,4.032-0.362,5.696-1.088
		s3.061-1.675,4.191-2.849c1.131-1.173,1.984-2.527,2.561-4.063s0.863-3.114,0.863-4.736v-6.08H1827.367z"/>
	<path fill="#E4E5E6" d="M1931.75,485.608c-0.512-1.152-1.238-2.102-2.176-2.849c-0.939-0.746-2.06-1.29-3.361-1.632
		c-1.301-0.341-2.741-0.512-4.319-0.512c-2.304,0-4.118,0.31-5.44,0.928c-1.322,0.619-2.304,1.323-2.943,2.112
		c-0.641,0.79-1.047,1.567-1.217,2.336c-0.17,0.768-0.256,1.302-0.256,1.6c0,1.622,0.33,2.87,0.992,3.744
		c0.661,0.875,1.547,1.547,2.656,2.016c1.152,0.471,2.4,0.875,3.744,1.217s2.912,0.747,4.704,1.216
		c1.28,0.342,2.549,0.693,3.808,1.056c1.258,0.363,2.389,0.864,3.393,1.504c1.002,0.641,1.812,1.451,2.432,2.433
		c0.618,0.981,0.928,2.262,0.928,3.84c0,1.664-0.352,3.072-1.056,4.224c-0.704,1.152-1.622,2.091-2.752,2.816
		c-1.132,0.726-2.411,1.248-3.841,1.567c-1.43,0.32-2.848,0.48-4.256,0.48c-4.395,0-7.711-0.96-9.951-2.88s-3.36-4.949-3.36-9.088
		h1.28c0,3.712,1.033,6.432,3.104,8.16c2.069,1.728,5.045,2.592,8.928,2.592c1.194,0,2.422-0.139,3.681-0.416
		c1.258-0.277,2.399-0.726,3.424-1.345c1.024-0.617,1.866-1.418,2.528-2.399c0.66-0.981,0.992-2.176,0.992-3.584
		c0-1.45-0.332-2.624-0.992-3.521c-0.662-0.896-1.516-1.632-2.561-2.208c-1.046-0.575-2.25-1.033-3.615-1.376
		c-1.367-0.341-2.752-0.682-4.16-1.023c-1.579-0.384-2.967-0.746-4.16-1.088c-1.195-0.342-2.262-0.726-3.2-1.152
		c-1.366-0.597-2.368-1.429-3.008-2.496c-0.64-1.065-0.96-2.496-0.96-4.288c0-0.896,0.191-1.834,0.576-2.815
		c0.384-0.981,1.023-1.877,1.92-2.688c0.896-0.81,2.048-1.472,3.455-1.984c1.408-0.512,3.137-0.768,5.185-0.768
		c3.669,0,6.569,0.832,8.704,2.496c2.133,1.664,3.2,4.331,3.2,8h-1.28C1932.518,488.168,1932.262,486.76,1931.75,485.608z"/>
</g>
</svg>
