<?xml version="1.0" encoding="utf-8"?>
<!-- Generator: Adobe Illustrator 22.0.1, SVG Export Plug-In . SVG Version: 6.00 Build 0)  -->
<svg version="1.1" id="Layer_1" xmlns="http://www.w3.org/2000/svg" xmlns:xlink="http://www.w3.org/1999/xlink" x="0px" y="0px"
	 viewBox="0 0 216.8 83.5" style="enable-background:new 0 0 216.8 83.5;" xml:space="preserve">
<style type="text/css">
	.st0{fill:#FFFFFF;}
	.st1{fill:#D92741;}
	.st2{fill:#B11B29;}
	.st3{fill:none;}
	.st4{fill:#D92827;}
	.st5{fill:#BE1E2D;}
	.st6{fill:url(#SVGID_1_);}
	.st7{fill:url(#SVGID_2_);}
	.st8{fill:#AD1A27;}
	.st9{fill:#EF4136;}
	.st10{fill:#CC2641;}
	.st11{fill:#B31F24;}
	.st12{fill:#B81D2B;}
	.st13{fill:#92111D;}
	.st14{fill:#AA1926;}
	.st15{fill:#D32725;}
	.st16{fill:#991320;}
</style>
<g>
	<path class="st0" d="M8.3,76.1v5.7H7.7V77l-2.1,2.7L3.4,77v4.7H2.8v-5.7h0.7l2,2.7l2-2.7H8.3z"/>
	<path class="st0" d="M12.9,78.2v-0.7h0.6v4.3h-0.6v-0.7c-0.3,0.5-0.8,0.8-1.5,0.8c-1.3,0-2.1-1-2.1-2.2c0-1.2,0.8-2.2,2.1-2.2
		C12.1,77.4,12.6,77.7,12.9,78.2z M13,79.6c0-0.9-0.5-1.6-1.5-1.6c-1,0-1.5,0.7-1.5,1.6c0,0.9,0.6,1.6,1.5,1.6
		C12.4,81.2,13,80.5,13,79.6z M11.4,75.9h0.9l-0.9,0.9h-0.5L11.4,75.9z"/>
	<path class="st0" d="M17.9,78.6h-0.7c-0.1-0.4-0.3-0.7-1-0.7c-0.7,0-1,0.2-1,0.6c0,1,2.9,0.4,2.9,2c0,0.8-0.7,1.3-1.8,1.3
		c-1.2,0-1.8-0.7-1.9-1.4h0.7c0,0.4,0.4,0.9,1.2,0.9c0.4,0,1.1-0.1,1.1-0.7c0-1.1-2.9-0.4-2.9-2c0-0.8,0.6-1.2,1.7-1.2
		C17.4,77.4,17.9,78,17.9,78.6z"/>
	<path class="st0" d="M24.2,78.2v-2.4h0.6v6h-0.6v-0.7c-0.3,0.5-0.8,0.8-1.5,0.8c-1.3,0-2.1-1-2.1-2.2c0-1.2,0.8-2.2,2.1-2.2
		C23.4,77.4,23.9,77.7,24.2,78.2z M24.3,79.6c0-0.9-0.5-1.6-1.5-1.6c-1,0-1.5,0.7-1.5,1.6c0,0.9,0.6,1.6,1.5,1.6
		S24.3,80.5,24.3,79.6z"/>
	<path class="st0" d="M29.2,80.5h0.7c-0.3,0.8-0.9,1.3-2,1.3c-1.3,0-2.2-1-2.2-2.2c0-1.2,0.8-2.2,2.1-2.2s2.1,1,2.1,2.2v0.3h-3.6
		c0.1,0.8,0.7,1.4,1.5,1.4C28.6,81.2,29,80.9,29.2,80.5z M26.5,79.3h2.9c-0.1-0.7-0.6-1.3-1.5-1.3S26.6,78.5,26.5,79.3z"/>
	<path class="st0" d="M33.5,81.1h3.1v0.6h-3.8v-0.4c0-1.7,3.2-2.4,3.2-3.7c0-0.7-0.5-1.1-1.3-1.1c-0.8,0-1.3,0.4-1.4,1h-0.6
		c0.1-1,0.9-1.6,2-1.6c1.2,0,1.9,0.7,1.9,1.7C36.6,79.3,33.6,80.1,33.5,81.1z"/>
	<path class="st0" d="M41.4,78.9c0,1.9-0.7,2.9-2,2.9c-1.3,0-2-1-2-2.9c0-1.9,0.7-2.9,2-2.9C41,76,41.4,77.4,41.4,78.9z M40.8,78.9
		c0-1.5-0.4-2.3-1.4-2.3c-0.9,0-1.3,0.8-1.3,2.3c0,1.5,0.4,2.3,1.3,2.3C40.6,81.2,40.8,80,40.8,78.9z"/>
	<path class="st0" d="M47.7,78.2v-0.7h0.6v4.3h-0.6v-0.7c-0.3,0.5-0.8,0.8-1.5,0.8c-1.3,0-2.1-1-2.1-2.2c0-1.2,0.8-2.2,2.1-2.2
		C46.9,77.4,47.4,77.7,47.7,78.2z M47.7,79.6c0-0.9-0.5-1.6-1.5-1.6c-1,0-1.5,0.7-1.5,1.6c0,0.9,0.6,1.6,1.5,1.6
		C47.2,81.2,47.7,80.5,47.7,79.6z"/>
	<path class="st0" d="M50.2,77.5v0.7c0.3-0.4,0.7-0.7,1.4-0.7c0.9,0,1.7,0.6,1.7,1.9v2.5h-0.6v-2.5c0-0.8-0.5-1.3-1.2-1.3
		c-0.7,0-1.3,0.5-1.3,1.3v2.5h-0.6v-4.3L50.2,77.5L50.2,77.5z M52.8,76c-0.1,0.4-0.3,0.8-0.8,0.8c-0.6,0-0.8-0.3-1.2-0.3
		c-0.3,0-0.4,0.2-0.4,0.3h-0.3c0.1-0.4,0.3-0.8,0.8-0.8c0.6,0,0.8,0.4,1.2,0.4c0.2,0,0.4-0.2,0.4-0.3C52.5,76,52.8,76,52.8,76z"/>
	<path class="st0" d="M58.5,79.6c0,1.2-0.8,2.2-2.1,2.2s-2.1-1-2.1-2.2c0-1.2,0.8-2.2,2.1-2.2C57.7,77.4,58.5,78.4,58.5,79.6z
		 M57.8,79.6c0-0.9-0.5-1.6-1.5-1.6s-1.5,0.7-1.5,1.6c0,0.9,0.5,1.6,1.5,1.6S57.8,80.5,57.8,79.6z"/>
	<path class="st0" d="M62.6,78.6h-0.7c-0.1-0.4-0.3-0.7-1-0.7c-0.7,0-1,0.2-1,0.6c0,1,2.9,0.4,2.9,2c0,0.8-0.7,1.3-1.8,1.3
		c-1.2,0-1.8-0.7-1.9-1.4h0.7c0,0.4,0.4,0.9,1.2,0.9c0.4,0,1.1-0.1,1.1-0.7c0-1.1-2.9-0.4-2.9-2c0-0.8,0.6-1.2,1.7-1.2
		C62,77.4,62.5,78,62.6,78.6z"/>
	<path class="st0" d="M68.9,78.2v-2.4h0.6v6h-0.6v-0.7c-0.3,0.5-0.8,0.8-1.5,0.8c-1.3,0-2.1-1-2.1-2.2c0-1.2,0.8-2.2,2.1-2.2
		C68,77.4,68.5,77.7,68.9,78.2z M68.9,79.6c0-0.9-0.5-1.6-1.5-1.6s-1.5,0.7-1.5,1.6c0,0.9,0.6,1.6,1.5,1.6S68.9,80.5,68.9,79.6z"/>
	<path class="st0" d="M73.9,80.5h0.7c-0.3,0.8-0.9,1.3-2,1.3c-1.3,0-2.2-1-2.2-2.2c0-1.2,0.8-2.2,2.1-2.2c1.3,0,2.1,1,2.1,2.2v0.3
		h-3.6c0.1,0.8,0.7,1.4,1.5,1.4C73.2,81.2,73.6,80.9,73.9,80.5z M71.1,79.3H74c-0.1-0.7-0.6-1.3-1.5-1.3
		C71.7,78,71.2,78.5,71.1,79.3z"/>
	<path class="st0" d="M80.6,80.5h0.7c-0.3,0.8-0.9,1.3-2,1.3c-1.3,0-2.2-1-2.2-2.2c0-1.2,0.8-2.2,2.1-2.2c1.3,0,2.1,1,2.1,2.2v0.3
		h-3.6c0.1,0.8,0.7,1.4,1.5,1.4C80,81.2,80.4,80.9,80.6,80.5z M77.9,79.3h2.9c-0.1-0.7-0.6-1.3-1.5-1.3C78.5,78,78,78.5,77.9,79.3z"
		/>
	<path class="st0" d="M84.1,79.5l1.7,2.2h-0.8L83.7,80l-1.2,1.8h-0.8l1.7-2.2l-1.6-2.1h0.8l1.1,1.6l1.1-1.6h0.8L84.1,79.5z"/>
	<path class="st0" d="M87,81.1v2.4h-0.6v-6H87v0.7c0.3-0.5,0.8-0.8,1.5-0.8c1.3,0,2.1,1,2.1,2.2c0,1.2-0.8,2.2-2.1,2.2
		C87.9,81.8,87.4,81.5,87,81.1z M87,79.6c0,0.9,0.5,1.6,1.5,1.6c1,0,1.5-0.7,1.5-1.6c0-0.9-0.6-1.6-1.5-1.6C87.5,78,87,78.7,87,79.6
		z"/>
	<path class="st0" d="M94.7,80.5h0.7c-0.3,0.8-0.9,1.3-2,1.3c-1.3,0-2.2-1-2.2-2.2c0-1.2,0.8-2.2,2.1-2.2c1.3,0,2.1,1,2.1,2.2v0.3
		H92c0.1,0.8,0.7,1.4,1.5,1.4C94.1,81.2,94.5,80.9,94.7,80.5z M92,79.3h2.9c-0.1-0.7-0.6-1.3-1.5-1.3C92.6,78,92.1,78.5,92,79.3z"/>
	<path class="st0" d="M98.7,77.4V78h-0.1c-1,0-1.5,0.9-1.5,1.8v1.9h-0.6v-4.3h0.6v1.1C97.2,78.2,97.6,77.4,98.7,77.4L98.7,77.4
		L98.7,77.4z"/>
	<path class="st0" d="M100.1,75.9v0.8h-0.7v-0.8H100.1z M99.5,77.5h0.6v4.3h-0.6V77.5z"/>
	<path class="st0" d="M104.5,80.5h0.7c-0.3,0.8-0.9,1.3-2,1.3c-1.3,0-2.2-1-2.2-2.2c0-1.2,0.8-2.2,2.1-2.2c1.3,0,2.1,1,2.1,2.2v0.3
		h-3.6c0.1,0.8,0.7,1.4,1.5,1.4C103.8,81.2,104.2,80.9,104.5,80.5z M101.7,79.3h2.9c-0.1-0.7-0.6-1.3-1.5-1.3S101.8,78.5,101.7,79.3
		z"/>
	<path class="st0" d="M106.8,77.5v0.7c0.3-0.4,0.7-0.7,1.4-0.7c0.9,0,1.7,0.6,1.7,1.9v2.5h-0.6v-2.5c0-0.8-0.5-1.3-1.2-1.3
		c-0.7,0-1.3,0.5-1.3,1.3v2.5h-0.6v-4.3L106.8,77.5L106.8,77.5z"/>
	<path class="st0" d="M114.3,80.4h0.7c-0.2,0.8-1,1.4-2,1.4c-1.3,0-2.1-1-2.1-2.2c0-1.2,0.8-2.2,2.1-2.2c1,0,1.8,0.6,2,1.4h-0.7
		c-0.2-0.5-0.6-0.8-1.2-0.8c-1,0-1.6,0.7-1.6,1.6c0,0.9,0.6,1.6,1.6,1.6C113.6,81.2,114.1,80.9,114.3,80.4z"/>
	<path class="st0" d="M116.5,75.9v0.8h-0.7v-0.8H116.5z M115.9,77.5h0.6v4.3h-0.6V77.5z"/>
	<path class="st0" d="M121,78.2v-0.7h0.6v4.3H121v-0.7c-0.3,0.5-0.8,0.8-1.5,0.8c-1.3,0-2.1-1-2.1-2.2c0-1.2,0.8-2.2,2.1-2.2
		C120.2,77.4,120.7,77.7,121,78.2z M121.1,79.6c0-0.9-0.5-1.6-1.5-1.6s-1.5,0.7-1.5,1.6c0,0.9,0.6,1.6,1.5,1.6
		S121.1,80.5,121.1,79.6z"/>
	<path class="st0" d="M125.6,81.8h-0.6v-5.7h0.6V81.8z"/>
	<path class="st0" d="M127.5,77.5v0.7c0.3-0.4,0.7-0.7,1.4-0.7c0.9,0,1.7,0.6,1.7,1.9v2.5H130v-2.5c0-0.8-0.5-1.3-1.2-1.3
		c-0.7,0-1.3,0.5-1.3,1.3v2.5h-0.6v-4.3L127.5,77.5L127.5,77.5z"/>
	<path class="st0" d="M135.3,81.8h-0.6v-2.6c0-0.7-0.5-1.2-1.1-1.2c-0.6,0-1.2,0.4-1.2,1.2v2.6h-0.6v-4.3h0.6v0.7
		c0.2-0.3,0.6-0.7,1.3-0.7c0.6,0,1.1,0.3,1.4,0.9c0.2-0.3,0.6-0.9,1.5-0.9c0.8,0,1.6,0.7,1.6,1.8v2.6h-0.6v-2.6
		c0-0.7-0.5-1.2-1.1-1.2c-0.6,0-1.2,0.4-1.2,1.2L135.3,81.8L135.3,81.8z"/>
	<path class="st0" d="M143.4,79.6c0,1.2-0.8,2.2-2.1,2.2c-1.3,0-2.1-1-2.1-2.2c0-1.2,0.8-2.2,2.1-2.2
		C142.5,77.4,143.4,78.4,143.4,79.6z M142.7,79.6c0-0.9-0.5-1.6-1.5-1.6c-1,0-1.5,0.7-1.5,1.6c0,0.9,0.5,1.6,1.5,1.6
		C142.2,81.2,142.7,80.5,142.7,79.6z"/>
	<path class="st0" d="M148.5,79.6c0,1.2-0.8,2.2-2.1,2.2c-0.7,0-1.2-0.3-1.5-0.8v0.7h-0.6v-6h0.6v2.4c0.3-0.5,0.8-0.8,1.5-0.8
		C147.7,77.4,148.5,78.4,148.5,79.6z M147.9,79.6c0-0.9-0.6-1.6-1.5-1.6s-1.5,0.7-1.5,1.6c0,0.9,0.5,1.6,1.5,1.6
		S147.9,80.5,147.9,79.6z"/>
	<path class="st0" d="M150.1,75.9v0.8h-0.7v-0.8H150.1z M149.5,77.5h0.6v4.3h-0.6V77.5z"/>
	<path class="st0" d="M151.9,81.8h-0.6v-6h0.6V81.8z"/>
	<path class="st0" d="M153.8,75.9v0.8h-0.7v-0.8H153.8z M153.1,77.5h0.6v4.3h-0.6V77.5z"/>
	<path class="st0" d="M158.3,78.2v-0.7h0.6v4.3h-0.6v-0.7c-0.3,0.5-0.8,0.8-1.5,0.8c-1.3,0-2.1-1-2.1-2.2c0-1.2,0.8-2.2,2.1-2.2
		C157.5,77.4,158,77.7,158.3,78.2z M158.3,79.6c0-0.9-0.5-1.6-1.5-1.6c-1,0-1.5,0.7-1.5,1.6c0,0.9,0.6,1.6,1.5,1.6
		C157.8,81.2,158.3,80.5,158.3,79.6z"/>
	<path class="st0" d="M162.4,77.4V78h-0.1c-1,0-1.5,0.9-1.5,1.8v1.9h-0.6v-4.3h0.6v1.1C160.9,78.2,161.3,77.4,162.4,77.4L162.4,77.4
		L162.4,77.4z"/>
	<path class="st0" d="M163.9,75.9v0.8h-0.7v-0.8H163.9z M163.2,77.5h0.6v4.3h-0.6V77.5z"/>
	<path class="st0" d="M168.4,78.2v-0.7h0.6v4.3h-0.6v-0.7c-0.3,0.5-0.8,0.8-1.5,0.8c-1.3,0-2.1-1-2.1-2.2c0-1.2,0.8-2.2,2.1-2.2
		C167.5,77.4,168.1,77.7,168.4,78.2z M168.4,79.6c0-0.9-0.5-1.6-1.5-1.6c-1,0-1.5,0.7-1.5,1.6c0,0.9,0.6,1.6,1.5,1.6
		C167.9,81.2,168.4,80.5,168.4,79.6z"/>
	<path class="st0" d="M175.3,80.5h0.7c-0.3,0.8-0.9,1.3-2,1.3c-1.3,0-2.2-1-2.2-2.2c0-1.2,0.8-2.2,2.1-2.2c1.3,0,2.1,1,2.1,2.2v0.3
		h-3.6c0.1,0.8,0.7,1.4,1.5,1.4C174.6,81.2,175,80.9,175.3,80.5z M172.5,79.3h2.9c-0.1-0.7-0.6-1.3-1.5-1.3
		C173.1,78,172.6,78.5,172.5,79.3z"/>
	<path class="st0" d="M177.6,77.5v0.7c0.3-0.4,0.7-0.7,1.4-0.7c0.9,0,1.7,0.6,1.7,1.9v2.5h-0.6v-2.5c0-0.8-0.5-1.3-1.2-1.3
		c-0.7,0-1.3,0.5-1.3,1.3v2.5H177v-4.3L177.6,77.5L177.6,77.5z"/>
	<path class="st0" d="M189.5,76.1v5.7h-0.6V77l-2.1,2.7l-2.1-2.7v4.7h-0.6v-5.7h0.7l2,2.7l2-2.7H189.5z"/>
	<path class="st0" d="M193.9,80.5h0.7c-0.3,0.8-0.9,1.3-2,1.3c-1.3,0-2.2-1-2.2-2.2c0-1.2,0.8-2.2,2.1-2.2s2.1,1,2.1,2.2v0.3h-3.6
		c0.1,0.8,0.7,1.4,1.5,1.4C193.3,81.2,193.7,80.9,193.9,80.5z M191.1,79.3h2.9c-0.1-0.7-0.6-1.3-1.5-1.3
		C191.8,78,191.3,78.5,191.1,79.3z M192.5,75.9h0.9l-0.9,0.9H192L192.5,75.9z"/>
	<path class="st0" d="M197.3,79.5l1.7,2.2h-0.8L197,80l-1.2,1.8h-0.8l1.7-2.2l-1.6-2.1h0.8l1.1,1.6l1.1-1.6h0.8L197.3,79.5z"/>
	<path class="st0" d="M200.3,75.9v0.8h-0.7v-0.8H200.3z M199.7,77.5h0.6v4.3h-0.6V77.5z"/>
	<path class="st0" d="M204.7,80.4h0.7c-0.2,0.8-1,1.4-2,1.4c-1.3,0-2.1-1-2.1-2.2c0-1.2,0.8-2.2,2.1-2.2c1,0,1.8,0.6,2,1.4h-0.7
		c-0.2-0.5-0.6-0.8-1.2-0.8c-1,0-1.6,0.7-1.6,1.6c0,0.9,0.6,1.6,1.6,1.6C204,81.2,204.5,80.9,204.7,80.4z"/>
	<path class="st0" d="M210.2,79.6c0,1.2-0.8,2.2-2.1,2.2c-1.3,0-2.1-1-2.1-2.2c0-1.2,0.8-2.2,2.1-2.2
		C209.4,77.4,210.2,78.4,210.2,79.6z M209.6,79.6c0-0.9-0.5-1.6-1.5-1.6c-1,0-1.5,0.7-1.5,1.6c0,0.9,0.5,1.6,1.5,1.6
		C209.1,81.2,209.6,80.5,209.6,79.6z"/>
</g>
<g>
	<g>
		<g>
			<path class="st0" d="M38.3,12.2h6.8v24.2h-6.8C38.3,36.4,38.3,12.2,38.3,12.2z"/>
			<path class="st0" d="M50.4,12.1h7l6.8,16.8l6.7-16.8h6.9v24.2H72V21.8l-5.4,14.5h-4.8l-5.5-14.6v14.6h-5.9
				C50.4,36.4,50.4,12.1,50.4,12.1z"/>
			<path class="st0" d="M105,21.1c0,5.5-4.1,8.9-10.7,8.9H90v6.3h-6.8V12.2h11C100.8,12.2,105,15.6,105,21.1z M98.1,21.1
				c0-2.2-1.4-3.6-4.2-3.6H90v7.1h3.8C96.6,24.7,98.1,23.4,98.1,21.1z"/>
			<path class="st0" d="M128.4,31.1v5.3H109V12.2h19v5.3h-12.2v4.1h10.7v5.1h-10.7v4.4L128.4,31.1L128.4,31.1z"/>
			<path class="st0" d="M138.1,17.6h-7.4v-5.4h21.6v5.4H145v18.7h-6.8L138.1,17.6L138.1,17.6z"/>
			<path class="st0" d="M155.1,25.6V12.2h6.8v13.2c0,4.1,1.7,5.8,4.6,5.8c2.8,0,4.6-1.7,4.6-5.8V12.2h6.7v13.4
				c0,7.2-4.2,11.3-11.4,11.3C159.3,36.9,155.1,32.8,155.1,25.6z"/>
		</g>
		<g>
			<g>
				<path class="st0" d="M214.7,14.2c-1.1,0-2.1-0.9-2.1-2.1c0-1.1,0.9-2.1,2.1-2.1s2.1,0.9,2.1,2.1
					C216.8,13.3,215.8,14.2,214.7,14.2z M214.7,10.1c-1.1,0-2,0.9-2,2s0.9,2,2,2s2-0.9,2-2S215.8,10.1,214.7,10.1z"/>
				<path class="st0" d="M214.7,14.2c-1.2,0-2.1-0.9-2.1-2.1s0.9-2.1,2.1-2.1c1.2,0,2.1,0.9,2.1,2.1S215.8,14.2,214.7,14.2z
					 M214.7,10.1c-1.1,0-2.1,0.9-2.1,2.1c0,1.1,0.9,2.1,2.1,2.1c1.1,0,2.1-0.9,2.1-2.1C216.7,11,215.8,10.1,214.7,10.1z M214.7,14.2
					c-1.1,0-2-0.9-2-2c0-1.1,0.9-2,2-2s2,0.9,2,2C216.7,13.3,215.8,14.2,214.7,14.2z M214.7,10.2c-1.1,0-2,0.9-2,2s0.9,2,2,2
					c1.1,0,2-0.9,2-2S215.8,10.2,214.7,10.2z"/>
			</g>
			<g>
				<path class="st0" d="M214.2,13.1H214v-2h0.6c0.1,0,0.2,0,0.3,0c0.1,0,0.2,0,0.2,0.1c0.1,0,0.1,0.1,0.1,0.2
					c0,0.1,0.1,0.2,0.1,0.3c0,0.1,0,0.1,0,0.2c0,0.1-0.1,0.1-0.1,0.2c0,0-0.1,0.1-0.2,0.1c-0.1,0-0.1,0-0.2,0.1l0.6,1h-0.2l-0.6-0.9
					h-0.3L214.2,13.1L214.2,13.1z M214.2,12h0.4c0.2,0,0.3,0,0.4-0.1c0.1-0.1,0.1-0.2,0.1-0.3c0-0.1,0-0.1,0-0.2
					c0,0-0.1-0.1-0.1-0.1c0,0-0.1,0-0.2-0.1c-0.1,0-0.1,0-0.2,0h-0.4L214.2,12L214.2,12z"/>
			</g>
		</g>
		<path class="st0" d="M182.9,12.1h7l6.8,16.8l6.7-16.8h6.9v24.2h-5.9V21.8L199,36.4h-4.8l-5.5-14.6v14.6h-5.9L182.9,12.1
			L182.9,12.1z"/>
	</g>
	<g>
		<path class="st1" d="M138.3,43.4h1.5v7.4h-1.5V43.4z"/>
		<path class="st1" d="M147.8,43.4v7.4h-1.5l-3.4-5.1v5.1h-1.5v-7.4h1.5l3.4,5.1v-5.1H147.8z"/>
		<path class="st1" d="M149.5,43.4h1.7l2.4,5.5l2.4-5.5h1.7v7.4h-1.5V46l-2,4.8H153l-2-4.8v4.8h-1.5L149.5,43.4L149.5,43.4z"/>
		<path class="st1" d="M162.7,50.9c-2.1,0-3.8-1.6-3.8-3.8c0-2.2,1.7-3.8,3.8-3.8c2.1,0,3.8,1.6,3.8,3.8
			C166.5,49.3,164.8,50.9,162.7,50.9z M162.7,49.6c1.3,0,2.3-1,2.3-2.5s-0.9-2.4-2.3-2.4c-1.3,0-2.3,0.9-2.3,2.4
			S161.4,49.6,162.7,49.6z"/>
		<path class="st1" d="M171,50.8h-3.2v-7.4h3.1c1.5,0,2.4,0.8,2.4,1.9c0,0.9-0.5,1.5-1.3,1.7c0.8,0.1,1.4,0.9,1.4,1.8
			C173.5,50,172.6,50.8,171,50.8z M170.7,44.6h-1.4v1.9h1.4c0.7,0,1.1-0.3,1.1-0.9C171.8,45,171.4,44.6,170.7,44.6z M170.8,47.6
			h-1.5v2h1.5c0.7,0,1.1-0.4,1.1-1C172,48,171.5,47.6,170.8,47.6z"/>
		<path class="st1" d="M174.9,43.4h1.5v7.4h-1.5V43.4z"/>
		<path class="st1" d="M179.5,43.4v6.2h2.4v1.2h-3.9v-7.4H179.5z"/>
		<path class="st1" d="M183.2,43.4h1.5v7.4h-1.5V43.4z"/>
		<path class="st1" d="M190.9,49.4h-2.9l-0.5,1.4h-1.6l2.7-7.4h1.7l2.7,7.4h-1.6L190.9,49.4z M189.4,45.1l-1.1,3.1h2.1L189.4,45.1z"
			/>
		<path class="st1" d="M196.9,43.4c1.8,0,2.7,1,2.7,2.3c0,0.9-0.5,1.8-1.7,2.1l1.8,3H198l-1.6-2.9h-0.7v2.9h-1.5v-7.4H196.9z
			 M196.9,44.6h-1.2v2.2h1.2c0.8,0,1.2-0.4,1.2-1.1C198.1,45.1,197.7,44.6,196.9,44.6z"/>
		<path class="st1" d="M201.2,43.4h1.5v7.4h-1.5V43.4z"/>
		<path class="st1" d="M208.9,49.4H206l-0.5,1.4h-1.6l2.7-7.4h1.7l2.7,7.4h-1.6L208.9,49.4z M207.4,45.1l-1.1,3.1h2.1L207.4,45.1z"
			/>
	</g>
	<rect x="38.3" y="46.4" class="st1" width="92.5" height="1.3"/>
	<g>
		<polyline class="st2" points="12.9,11.8 13,17.3 26.7,27.9 29.1,26.2 		"/>
		<rect x="13.2" class="st3" width="0" height="11.8"/>
		<polygon class="st4" points="12.9,0 12.9,11.8 29.1,26.2 29.1,17.8 		"/>
		<polyline class="st5" points="12.9,0 12.9,11.8 1.2,27.9 1.2,20.6 		"/>
		
			<linearGradient id="SVGID_1_" gradientUnits="userSpaceOnUse" x1="1.21" y1="42.524" x2="12.97" y2="42.524" gradientTransform="matrix(1 0 0 -1 0 62.862)">
			<stop  offset="0" style="stop-color:#921610"/>
			<stop  offset="0.2448" style="stop-color:#961814"/>
			<stop  offset="0.652" style="stop-color:#A11B1E"/>
			<stop  offset="1" style="stop-color:#AA1F26"/>
		</linearGradient>
		<polyline class="st6" points="1.2,27.9 3.5,28.8 13,17.1 12.9,11.8 		"/>
		
			<linearGradient id="SVGID_2_" gradientUnits="userSpaceOnUse" x1="2.7767" y1="30.7272" x2="26.7041" y2="40.3944" gradientTransform="matrix(1 0 0 -1 0 62.862)">
			<stop  offset="0" style="stop-color:#BA231F"/>
			<stop  offset="0.4435" style="stop-color:#C02421"/>
			<stop  offset="1" style="stop-color:#CD2724"/>
		</linearGradient>
		<polyline class="st7" points="2.8,28.8 3,32.7 13,25.1 29.1,34.1 29.1,28.4 13,15.4 		"/>
		<polygon class="st8" points="29.1,34.1 27.9,34.4 27.3,33.1 		"/>
		<polyline class="st9" points="11.4,28.4 11.4,22.4 0.8,34 0.8,37.8 		"/>
		<polyline class="st5" points="3.6,38 14.4,29.8 11.4,28.4 0.8,37.7 		"/>
		<polyline class="st4" points="11.4,22.4 11.4,28.4 28.3,36.5 28.3,31.5 		"/>
		<polygon class="st1" points="30.4,36.7 15.7,28.7 3.6,38.2 3.6,42.3 10.4,38.3 13.2,39.2 15.7,38 30.4,43.3 		"/>
		<polyline class="st10" points="3.6,38 3.6,42.3 10.5,38.3 13,39.3 15.7,38 15.7,28.7 		"/>
		<polygon class="st11" points="11.4,41.3 12.5,39.3 15.7,37.8 30.4,43.3 27.3,43.9 		"/>
		<polyline class="st8" points="0,45.8 14.4,41.8 14.4,39.9 		"/>
		<polyline class="st4" points="10.5,38.3 10.5,41.4 13.8,42.4 15.6,41.7 27.8,44.9 27.8,44 		"/>
		<polyline class="st5" points="0,44.1 10.5,38.3 10.5,41.5 0,45.8 		"/>
		<polyline class="st12" points="15.2,41.4 15.2,44.7 1.4,47.2 1.4,45.4 		"/>
		<polyline class="st13" points="15.2,44.6 15.2,45.3 1.4,47.2 		"/>
		<polyline class="st14" points="30.7,45.7 30.7,47.9 27.7,48.6 15.2,47.3 15.2,42.7 		"/>
		<polyline class="st5" points="15.2,44.6 15.2,41.4 30.7,45.6 30.7,47.9 		"/>
		<polygon class="st8" points="3.1,46.3 3.1,50.9 12.1,50.9 12.1,44.7 		"/>
		<polyline class="st15" points="12.1,44.7 12.1,50.9 28.2,50.9 28.2,48.1 		"/>
		<g>
			<line class="st3" x1="13" y1="15.4" x2="13" y2="23.2"/>
			<rect x="13" y="15.4" class="st16" width="0" height="7.8"/>
		</g>
	</g>
</g>
</svg>
