<?xml version="1.0" encoding="UTF-8" standalone="no"?> <!-- Created with Vectornator for iOS (http://vectornator.io/) --><!DOCTYPE svg PUBLIC "-//W3C//DTD SVG 1.1//EN" "http://www.w3.org/Graphics/SVG/1.1/DTD/svg11.dtd">
<svg height="100%" style="fill-rule:evenodd;clip-rule:evenodd;stroke-linecap:round;stroke-linejoin:round;" xmlns:xlink="http://www.w3.org/1999/xlink" xmlns="http://www.w3.org/2000/svg" xml:space="preserve" width="100%" xmlns:vectornator="http://vectornator.io" version="1.1" viewBox="0 0 512 512">
<metadata>
<vectornator:setting key="DynamicGuides" value="1"/>
<vectornator:setting key="Units" value="Pixels"/>
<vectornator:setting key="RulersVisible" value="1"/>
<vectornator:setting key="SnapToGuides" value="1"/>
<vectornator:setting key="GridSpacing" value="36"/>
</metadata>
<defs/>
<g id="Untitled" vectornator:layerName="Untitled">
<g opacity="1">
<path d="M255.15+468.625L63.787+468.625C52.05+468.625+42.525+459.099+42.525+447.363L42.525+64.638C42.525+52.901+52.051+43.376+63.787+43.376L255.15+43.376C266.908+43.376+276.412+33.872+276.412+22.114C276.412+10.356+266.908+0.85+255.15+0.85L63.787+0.85C28.619+0.85+0+29.47+0+64.638L0+447.362C0+482.53+28.619+511.149+63.787+511.149L255.15+511.149C266.908+511.149+276.412+501.645+276.412+489.887C276.412+478.129+266.908+468.625+255.15+468.625Z" opacity="1" fill="#050017"/>
<path d="M505.664+240.861L376.388+113.286C368.053+105.036+354.573+105.143+346.323+113.499C338.073+121.855+338.158+135.314+346.536+143.564L438.921+234.737L191.362+234.737C179.604+234.737+170.1+244.241+170.1+255.999C170.1+267.757+179.604+277.262+191.362+277.262L438.921+277.262L346.536+368.435C338.159+376.685+338.095+390.144+346.323+398.5C350.49+402.71+355.976+404.836+361.462+404.836C366.863+404.836+372.263+402.795+376.388+398.712L505.664+271.137C509.704+267.14+512+261.696+512+255.998C512+250.302+509.725+244.88+505.664+240.861Z" opacity="1" fill="#050017"/>
</g>
</g>
</svg>
