<?xml version="1.0"?>
<svg xmlns="http://www.w3.org/2000/svg" id="Capa_1" enable-background="new 0 0 512 512" height="512px" viewBox="0 0 512 512" width="512px"><g><g><path d="m508.774 88.622c-2.021-1.404-4.598-1.73-6.909-.872-57.041 21.219-148.952 33.887-245.862 33.887-48.508 0-94.872-3.002-137.805-8.924-4.102-.565-7.904 2.306-8.471 6.417-.567 4.112 2.306 7.904 6.418 8.471 43.611 6.015 90.665 9.065 139.858 9.065 94.554 0 181.477-11.334 240.968-31.254v301.192c-30.271-10.1-68.676-18.217-111.924-23.617-4.12-.511-7.874 2.407-8.388 6.526-.514 4.118 2.408 7.873 6.525 8.388 47.096 5.881 88.135 14.996 118.681 26.359 4.832 1.796 10.135-1.896 10.135-7.043v-322.425c0-2.461-1.206-4.766-3.226-6.17z" data-original="#000000" class="active-path" data-old_color="#000000" fill="#212121"/><path d="m354.757 379.72c-31.74-2.905-64.966-4.377-98.754-4.377-94.559 0-181.482 11.335-240.973 31.257v-301.195c20.338 6.797 44.196 12.659 71.105 17.466 4.093.729 7.99-1.991 8.719-6.076.73-4.086-1.99-7.989-6.075-8.719-30.634-5.472-57.093-12.312-78.643-20.329-4.833-1.795-10.136 1.896-10.136 7.043v322.428c0 5.147 5.303 8.839 10.135 7.043 57.04-21.221 148.953-33.89 245.868-33.89 33.334 0 66.098 1.452 97.385 4.315 4.113.374 7.79-2.665 8.168-6.799.378-4.132-2.666-7.789-6.799-8.167z" data-original="#000000" class="active-path" data-old_color="#000000" fill="#212121"/><path d="m333.749 256.004c0 4.15 3.364 7.515 7.515 7.515s7.515-3.364 7.515-7.515c0-51.158-41.62-92.778-92.778-92.778s-92.778 41.62-92.778 92.778 41.62 92.778 92.778 92.778c38.659 0 73.639-24.353 87.043-60.599 1.439-3.893-.549-8.215-4.441-9.655-3.892-1.436-8.214.55-9.655 4.442-11.233 30.375-40.548 50.783-72.947 50.783-42.871 0-77.749-34.878-77.749-77.749s34.878-77.749 77.749-77.749 77.748 34.878 77.748 77.749z" data-original="#000000" class="active-path" data-old_color="#000000" fill="#212121"/><path d="m243.729 212.391c-4.269-2.706-9.674-2.87-14.101-.434-4.429 2.437-7.179 7.091-7.179 12.145v68.252c0 4.591 2.349 8.984 6.169 11.532 4.513 3.01 10.529 3.082 15.111.18l53.883-34.126c3.99-2.527 6.446-6.99 6.445-11.712 0-4.722-2.455-9.184-6.445-11.71zm-6.25 77.843v-64.012l50.536 32.006z" data-original="#000000" class="active-path" data-old_color="#000000" fill="#212121"/></g></g> </svg>
